<?xml version="1.0" encoding="UTF-8" standalone="no"?>
<!-- Created with Inkscape (http://www.inkscape.org/) -->

<svg
   version="1.1"
   id="svg1"
   width="128"
   height="128"
   viewBox="0 0 128 128"
   sodipodi:docname="Elevate-Icon.png"
   inkscape:version="1.4.2 (ebf0e940d0, 2025-05-08)"
   xmlns:inkscape="http://www.inkscape.org/namespaces/inkscape"
   xmlns:sodipodi="http://sodipodi.sourceforge.net/DTD/sodipodi-0.dtd"
   xmlns="http://www.w3.org/2000/svg"
   xmlns:svg="http://www.w3.org/2000/svg">
  <defs
     id="defs1">
    <inkscape:path-effect
       effect="bspline"
       id="path-effect9"
       is_visible="true"
       lpeversion="1.3"
       weight="33.333333"
       steps="2"
       helper_size="0"
       apply_no_weight="true"
       apply_with_weight="true"
       only_selected="false"
       uniform="false" />
    <inkscape:path-effect
       effect="bspline"
       id="path-effect8"
       is_visible="true"
       lpeversion="1.3"
       weight="33.333333"
       steps="2"
       helper_size="0"
       apply_no_weight="true"
       apply_with_weight="true"
       only_selected="false"
       uniform="false" />
    <inkscape:path-effect
       effect="bspline"
       id="path-effect7"
       is_visible="true"
       lpeversion="1.3"
       weight="33.333333"
       steps="2"
       helper_size="0"
       apply_no_weight="true"
       apply_with_weight="true"
       only_selected="false"
       uniform="false" />
    <inkscape:path-effect
       effect="bspline"
       id="path-effect6"
       is_visible="true"
       lpeversion="1.3"
       weight="33.333333"
       steps="2"
       helper_size="0"
       apply_no_weight="true"
       apply_with_weight="true"
       only_selected="false"
       uniform="false" />
    <inkscape:path-effect
       effect="bspline"
       id="path-effect5"
       is_visible="true"
       lpeversion="1.3"
       weight="33.333333"
       steps="2"
       helper_size="0"
       apply_no_weight="true"
       apply_with_weight="true"
       only_selected="false"
       uniform="false" />
    <inkscape:path-effect
       effect="bspline"
       id="path-effect4"
       is_visible="true"
       lpeversion="1.3"
       weight="33.333333"
       steps="2"
       helper_size="0"
       apply_no_weight="true"
       apply_with_weight="true"
       only_selected="false"
       uniform="false" />
    <inkscape:path-effect
       effect="bspline"
       id="path-effect3"
       is_visible="true"
       lpeversion="1.3"
       weight="33.333333"
       steps="2"
       helper_size="0"
       apply_no_weight="true"
       apply_with_weight="true"
       only_selected="false"
       uniform="false" />
    <inkscape:path-effect
       effect="bspline"
       id="path-effect2"
       is_visible="true"
       lpeversion="1.3"
       weight="33.333333"
       steps="2"
       helper_size="0"
       apply_no_weight="true"
       apply_with_weight="true"
       only_selected="false"
       uniform="false" />
    <inkscape:path-effect
       effect="bspline"
       id="path-effect1"
       is_visible="true"
       lpeversion="1.3"
       weight="33.333333"
       steps="2"
       helper_size="0"
       apply_no_weight="true"
       apply_with_weight="true"
       only_selected="false"
       uniform="false" />
  </defs>
  <sodipodi:namedview
     id="namedview1"
     pagecolor="#ffffff"
     bordercolor="#000000"
     borderopacity="0.25"
     inkscape:showpageshadow="2"
     inkscape:pageopacity="0.0"
     inkscape:pagecheckerboard="0"
     inkscape:deskcolor="#d1d1d1"
     inkscape:zoom="5.5845906"
     inkscape:cx="54.435504"
     inkscape:cy="63.299179"
     inkscape:current-layer="g1" />
  <g
     inkscape:groupmode="layer"
     inkscape:label="Image"
     id="g1"
     style="display:inline"
     transform="translate(-0.21331907,-0.09489803)">
    <g
       id="g15"
       transform="matrix(3.1550519,0,0,3.1591137,-0.45971369,-0.20489566)">
      <path
         style="opacity:1;fill:#86c0c7;fill-opacity:1;stroke-width:0.0617719"
         d="M 10.562993,25.073737 C 8.5608894,24.837307 7.3940011,24.442732 6.0541357,23.549099 4.4663231,22.490094 3.2870992,21.233792 2.495307,19.757652 1.7632086,18.3928 0.91868447,16.217374 0.91352868,15.683119 0.90998431,15.315845 1.4396281,13.611193 1.9277096,12.41899 2.9044664,10.033133 4.4497688,7.6971862 6.2816102,5.8374434 7.9979726,4.0949389 10.330381,2.522082 12.449354,1.6782334 c 2.270243,-0.90408994 6.601227,-1.61383768 9.156615,-1.5005567 2.325426,0.10308674 4.675765,0.68848847 7.210617,1.7959572 2.260859,0.9877621 4.15259,2.2963703 5.874748,4.0638675 2.130849,2.186948 3.682837,4.7101346 4.645355,7.5523136 0.497747,1.469773 1.000354,3.551737 1.000354,4.143791 0,0.257134 -0.12732,0.330174 -0.325186,0.186552 -0.998184,-0.724543 -2.459601,-1.606412 -3.300019,-1.991345 -1.665896,-0.763022 -4.190068,-1.185101 -6.047686,-1.011262 -1.430552,0.133872 -2.939019,0.588394 -4.425273,1.333394 -1.503851,0.753821 -2.650962,1.600772 -4.803983,3.546945 -1.460174,1.31989 -2.852167,2.452191 -3.793151,3.085497 -1.536757,1.034274 -3.140694,1.755165 -4.539261,2.040175 -0.576883,0.117562 -2.068643,0.205778 -2.539491,0.150175 z"
         id="path10" />
      <path
         style="opacity:1;fill:#86c0c7;fill-opacity:1;stroke-width:0.0617719"
         d="M 10.254133,28.319261 C 8.2783935,28.161184 6.3592503,27.501997 4.6637775,26.399085 3.837662,25.861694 3.3962164,25.491601 2.4336689,24.529438 1.0414587,23.137782 0.44320367,22.266821 0.30802359,21.434845 0.24182067,21.027394 0.226974,19.724809 0.28602151,19.504474 c 0.0204859,-0.07644 0.059517,-0.138987 0.0867358,-0.138987 0.0272189,0 0.27989319,0.368315 0.56149856,0.818477 0.99298153,1.58734 1.45134913,2.176591 2.44184093,3.139096 0.7239982,0.70354 1.2862578,1.158429 1.9980575,1.616502 1.8491192,1.189986 3.3055971,1.601791 5.6521277,1.598082 2.725851,-0.0043 4.826467,-0.640682 7.083857,-2.146028 0.707471,-0.471777 1.047192,-0.722985 1.809545,-1.338073 0.353159,-0.284937 1.444828,-1.209411 1.571215,-1.330573 2.697239,-2.585739 4.044078,-3.569733 5.88436,-4.299088 1.990673,-0.788958 3.879175,-1.1224 5.507446,-0.97242 1.908505,0.175793 3.158848,0.638328 5.415866,2.003474 0.553159,0.334576 1.60131,1.048362 1.840183,1.253158 0.14575,0.124957 0.338131,0.370014 0.427513,0.54457 0.136773,0.267109 0.163286,0.402138 0.167403,0.852567 0.0027,0.294356 -0.01509,0.555246 -0.03951,0.579757 -0.05589,0.05609 -0.199679,-0.03648 -1.182185,-0.761123 -2.347435,-1.731336 -3.893453,-2.505643 -5.694964,-2.852263 -2.071316,-0.398532 -4.783847,-0.03593 -6.577375,0.879237 -1.316797,0.671911 -2.178462,1.360975 -4.692896,3.752856 -2.029417,1.930504 -3.397543,3.025694 -4.663777,3.73337 -2.139158,1.195538 -3.736119,1.725087 -5.683014,1.884476 -0.819321,0.06708 -1.082806,0.06677 -1.945815,-0.0023 z"
         id="path11" />
      <path
         style="opacity:1;fill:#86c0c7;fill-opacity:1;stroke-width:0.0617719"
         d="M 10.995396,31.806497 C 8.3494942,31.627301 6.1078029,30.853574 3.7989711,29.322626 2.6980697,28.592637 2.2613722,28.259539 1.7512724,27.76071 1.3522567,27.37051 1.2474994,27.138869 0.95882368,26.00843 0.77898333,25.304184 0.86905155,25.256297 1.4825253,25.729986 c 2.5818007,1.993518 3.5673824,2.620811 4.985014,3.172809 1.792844,0.698097 4.0779997,1.05275 5.8267737,0.904307 2.367335,-0.200949 4.470072,-0.920666 6.658053,-2.278894 1.299718,-0.806822 1.868546,-1.310286 4.06051,-3.593912 0.967199,-1.007645 1.863725,-1.844185 2.576906,-2.404488 1.36467,-1.072138 2.896825,-1.830656 4.320271,-2.138822 0.615637,-0.133282 1.864014,-0.179026 2.621685,-0.09607 0.580314,0.06354 1.000362,0.162965 0.94067,0.222656 -0.0138,0.0138 -0.465977,0.112445 -1.00484,0.219214 -2.09394,0.414886 -3.336167,0.914975 -4.917306,1.979581 -1.292541,0.870289 -2.641793,2.205291 -5.276689,5.220959 -0.784088,0.897397 -1.92979,1.981989 -2.62544,2.485403 -1.523754,1.102679 -3.720806,1.957051 -5.820107,2.263278 -0.665274,0.09704 -2.20914,0.162712 -2.83263,0.120486 z"
         id="path12" />
      <path
         style="opacity:1;fill:#3e4c5e;fill-opacity:1;stroke-width:0.0617719"
         d="M 11.582229,34.462415 C 9.4467792,34.352653 7.7547579,34.074833 6.3083849,33.596481 5.7955595,33.426876 4.6807918,32.947277 4.3042888,32.734271 3.8034314,32.450912 2.9486973,30.9736 3.289353,30.980068 c 0.042468,8.06e-4 0.2301003,0.06671 0.4169603,0.146458 1.5647463,0.667782 2.0378494,0.859609 2.6670093,1.08138 1.3312622,0.469256 2.8620122,0.794788 4.3749864,0.930392 2.703961,0.242351 5.678595,-0.266102 7.937687,-1.356785 0.944815,-0.456153 1.494636,-0.818457 2.413381,-1.590298 0.979756,-0.823095 1.749975,-1.628382 3.086504,-3.227036 1.706674,-2.04139 2.744185,-3.067161 4.043872,-3.998112 1.398551,-1.001766 2.72486,-1.575211 4.200488,-1.816129 0.798493,-0.130366 2.844727,-0.115133 3.573491,0.0266 1.629755,0.316968 3.084095,1.071333 4.113645,2.133744 l 0.305395,0.315143 -0.08031,0.57255 c -0.04417,0.314902 -0.09072,0.583588 -0.103428,0.597079 -0.01271,0.01349 -0.252987,-0.115497 -0.533942,-0.28664 -0.987733,-0.601678 -1.814054,-0.943735 -2.930539,-1.213103 -2.745574,-0.662409 -5.615548,-0.120694 -7.737401,1.460454 -0.691339,0.515167 -2.761402,2.557828 -3.583188,3.535757 -1.924707,2.290409 -3.693177,3.63107 -6.452321,4.891446 -1.508617,0.689135 -2.723559,1.043715 -4.082747,1.191546 -0.664402,0.07226 -2.632287,0.124103 -3.336664,0.0879 z"
         id="path13" />
      <path
         style="opacity:1;fill:#3e4c5e;fill-opacity:1;stroke-width:0.0617719"
         d="M 12.045518,37.215829 C 9.9559243,37.105558 8.7515986,36.832223 7.697165,36.228922 7.1623422,35.92292 6.8224274,35.604536 6.8774555,35.461135 c 0.052763,-0.137498 0.4264583,-0.125289 1.7092879,0.05584 1.5535236,0.219354 2.5193526,0.279511 4.4902896,0.279681 2.458601,2.12e-4 3.512787,-0.15954 5.554205,-0.841682 3.046076,-1.017852 3.956603,-1.673221 7.283865,-5.242699 2.660992,-2.854705 3.364388,-3.523907 4.290906,-4.08231 1.444373,-0.870508 2.839531,-1.223839 4.818651,-1.220346 1.584922,0.0028 2.533746,0.204796 3.739467,0.796112 0.882102,0.432605 1.261408,0.886409 1.131097,1.353249 -0.111453,0.399283 -0.164393,0.400364 -0.962221,0.01964 -1.232808,-0.5883 -1.82202,-0.725846 -3.112659,-0.726618 -2.098906,-0.0013 -3.753899,0.675651 -5.662223,2.315903 -0.364124,0.312974 -1.365975,1.288845 -2.226335,2.168602 -3.743804,3.82821 -5.466649,5.042705 -8.479553,5.97754 -1.792683,0.556228 -3.145386,0.808054 -4.843181,0.901632 -1.201485,0.06622 -1.311352,0.06623 -2.563534,1.5e-4 z"
         id="path14" />
      <path
         style="opacity:1;fill:#3e4c5e;fill-opacity:1;stroke-width:0.0617719"
         d="m 18.408023,40.515454 c -1.332022,-0.113152 -2.635406,-0.310505 -3.633843,-0.55022 -0.925715,-0.222256 -3.223046,-1.100212 -3.127892,-1.195366 0.01978,-0.01978 0.833486,-0.03916 1.808227,-0.04305 1.839718,-0.0073 2.431646,-0.05992 3.841614,-0.341244 3.169379,-0.632361 6.311614,-2.114011 8.830772,-4.163951 0.512165,-0.416769 1.489631,-1.401892 2.849721,-2.872044 2.385268,-2.57829 3.135482,-3.166262 4.719943,-3.6992 1.034261,-0.347876 1.978267,-0.477696 2.824285,-0.388395 0.720563,0.07606 1.552316,0.298336 2.161568,0.577658 0.640432,0.293618 0.641049,0.29524 0.354299,0.930047 -1.132165,2.506385 -2.348727,4.320557 -4.009124,5.978519 -1.712975,1.710463 -3.603971,3.035563 -5.944444,4.165524 -1.688976,0.815423 -3.01144,1.194908 -5.208314,1.494539 -0.646775,0.08821 -4.744372,0.16855 -5.466812,0.10718 z"
         id="path15" />
    </g>
  </g>
</svg>
